<svg xmlns="http://www.w3.org/2000/svg" xmlns:xlink="http://www.w3.org/1999/xlink" width="300" zoomAndPan="magnify" viewBox="0 0 224.87999 225" height="300" preserveAspectRatio="xMidYMid meet" version="1.0"><defs><clipPath id="ad1bf0774a"><path d="M 7.179688 81 L 151 81 L 151 217.75 L 7.179688 217.75 Z M 7.179688 81 " clip-rule="nonzero"/></clipPath><clipPath id="d44096b8db"><path d="M 72 7.242188 L 217.691406 7.242188 L 217.691406 127 L 72 127 Z M 72 7.242188 " clip-rule="nonzero"/></clipPath></defs><g clip-path="url(#ad1bf0774a)"><path fill="#f1f1f1" d="M 142.125 169.601562 C 139.089844 166.5625 136.289062 163.320312 133.726562 159.871094 L 133.726562 179.929688 C 133.742188 180.636719 133.722656 181.339844 133.664062 182.042969 C 133.609375 182.75 133.519531 183.449219 133.394531 184.144531 C 133.265625 184.839844 133.109375 185.527344 132.914062 186.207031 C 132.71875 186.882812 132.492188 187.554688 132.230469 188.210938 C 131.972656 188.867188 131.679688 189.507812 131.355469 190.136719 C 131.03125 190.761719 130.675781 191.375 130.289062 191.964844 C 129.90625 192.558594 129.492188 193.128906 129.050781 193.679688 C 128.609375 194.230469 128.140625 194.761719 127.644531 195.265625 C 127.152344 195.769531 126.632812 196.25 126.089844 196.699219 C 125.546875 197.152344 124.984375 197.578125 124.402344 197.976562 C 123.816406 198.371094 123.214844 198.738281 122.59375 199.078125 C 121.972656 199.414062 121.335938 199.71875 120.683594 199.992188 C 120.035156 200.265625 119.371094 200.507812 118.695312 200.714844 C 118.019531 200.921875 117.335938 201.097656 116.644531 201.234375 C 115.949219 201.375 115.253906 201.480469 114.550781 201.550781 C 113.847656 201.621094 113.140625 201.65625 112.4375 201.65625 C 111.730469 201.65625 111.023438 201.621094 110.320312 201.550781 C 109.617188 201.480469 108.921875 201.375 108.226562 201.234375 C 107.535156 201.097656 106.851562 200.921875 106.175781 200.714844 C 105.5 200.507812 104.839844 200.265625 104.1875 199.992188 C 103.535156 199.71875 102.898438 199.414062 102.277344 199.078125 C 101.65625 198.738281 101.054688 198.371094 100.46875 197.976562 C 99.886719 197.578125 99.324219 197.152344 98.78125 196.699219 C 98.238281 196.25 97.71875 195.769531 97.226562 195.265625 C 96.730469 194.761719 96.261719 194.230469 95.820312 193.679688 C 95.378906 193.128906 94.964844 192.558594 94.582031 191.964844 C 94.195312 191.375 93.839844 190.761719 93.515625 190.136719 C 93.191406 189.507812 92.898438 188.867188 92.640625 188.210938 C 92.378906 187.554688 92.152344 186.882812 91.957031 186.207031 C 91.765625 185.527344 91.605469 184.839844 91.480469 184.144531 C 91.351562 183.449219 91.261719 182.75 91.207031 182.042969 C 91.152344 181.339844 91.128906 180.636719 91.144531 179.929688 L 91.144531 133.789062 L 45.019531 133.789062 C 43.902344 133.789062 42.789062 133.699219 41.683594 133.523438 C 40.578125 133.351562 39.492188 133.089844 38.429688 132.742188 C 37.367188 132.398438 36.335938 131.96875 35.339844 131.460938 C 34.339844 130.953125 33.390625 130.367188 32.484375 129.710938 C 31.582031 129.050781 30.734375 128.324219 29.945312 127.53125 C 29.152344 126.738281 28.429688 125.890625 27.773438 124.984375 C 27.117188 124.078125 26.539062 123.125 26.03125 122.125 C 25.527344 121.128906 25.101562 120.097656 24.757812 119.03125 C 24.414062 117.964844 24.160156 116.878906 23.988281 115.773438 C 23.816406 114.667969 23.730469 113.554688 23.734375 112.4375 C 23.738281 111.316406 23.828125 110.207031 24.007812 109.101562 C 24.1875 107.996094 24.453125 106.914062 24.804688 105.851562 C 25.152344 104.789062 25.585938 103.757812 26.097656 102.765625 C 26.609375 101.769531 27.195312 100.820312 27.859375 99.917969 C 28.519531 99.015625 29.25 98.171875 30.046875 97.382812 C 30.839844 96.597656 31.691406 95.878906 32.601562 95.222656 L 34.214844 94.066406 C 32.132812 92.332031 30.199219 90.445312 28.40625 88.414062 C 26.511719 86.257812 24.734375 84.003906 23.078125 81.65625 L 22.292969 82.238281 C 20.71875 83.425781 19.242188 84.726562 17.867188 86.140625 C 16.492188 87.554688 15.238281 89.070312 14.101562 90.683594 C 12.960938 92.292969 11.957031 93.984375 11.085938 95.753906 C 10.210938 97.523438 9.480469 99.351562 8.894531 101.234375 C 8.308594 103.117188 7.871094 105.035156 7.582031 106.988281 C 7.292969 108.941406 7.160156 110.902344 7.179688 112.875 C 7.199219 114.847656 7.371094 116.808594 7.699219 118.753906 C 8.023438 120.699219 8.5 122.609375 9.125 124.480469 C 9.75 126.351562 10.515625 128.164062 11.421875 129.914062 C 12.332031 131.667969 13.371094 133.335938 14.539062 134.925781 C 15.707031 136.515625 16.992188 138.003906 18.394531 139.394531 C 19.796875 140.78125 21.296875 142.050781 22.898438 143.207031 C 24.5 144.359375 26.179688 145.382812 27.941406 146.273438 C 29.699219 147.164062 31.519531 147.910156 33.398438 148.515625 C 35.273438 149.125 37.1875 149.578125 39.136719 149.886719 C 41.085938 150.195312 43.046875 150.347656 45.019531 150.347656 L 74.582031 150.347656 L 74.582031 179.894531 C 74.566406 181.144531 74.609375 182.394531 74.710938 183.640625 C 74.816406 184.890625 74.984375 186.128906 75.210938 187.359375 C 75.441406 188.589844 75.726562 189.808594 76.078125 191.011719 C 76.425781 192.210938 76.832031 193.394531 77.296875 194.554688 C 77.765625 195.71875 78.285156 196.855469 78.863281 197.964844 C 79.445312 199.074219 80.074219 200.152344 80.761719 201.199219 C 81.445312 202.25 82.183594 203.257812 82.96875 204.234375 C 83.753906 205.207031 84.585938 206.140625 85.464844 207.03125 C 86.34375 207.925781 87.261719 208.769531 88.226562 209.570312 C 89.1875 210.371094 90.1875 211.125 91.226562 211.824219 C 92.261719 212.527344 93.332031 213.175781 94.433594 213.769531 C 95.535156 214.363281 96.660156 214.90625 97.816406 215.386719 C 98.972656 215.871094 100.148438 216.296875 101.34375 216.664062 C 102.539062 217.03125 103.753906 217.335938 104.980469 217.582031 C 106.207031 217.828125 107.445312 218.015625 108.6875 218.140625 C 109.933594 218.261719 111.183594 218.324219 112.4375 218.324219 C 113.6875 218.324219 114.9375 218.261719 116.183594 218.140625 C 117.429688 218.015625 118.664062 217.828125 119.890625 217.582031 C 121.117188 217.335938 122.332031 217.03125 123.527344 216.664062 C 124.726562 216.296875 125.902344 215.871094 127.054688 215.386719 C 128.210938 214.90625 129.339844 214.363281 130.4375 213.769531 C 131.539062 213.175781 132.609375 212.527344 133.648438 211.824219 C 134.683594 211.125 135.683594 210.371094 136.644531 209.570312 C 137.609375 208.769531 138.527344 207.925781 139.40625 207.03125 C 140.285156 206.140625 141.117188 205.207031 141.902344 204.234375 C 142.6875 203.257812 143.425781 202.25 144.109375 201.199219 C 144.796875 200.152344 145.429688 199.074219 146.007812 197.964844 C 146.585938 196.855469 147.109375 195.71875 147.574219 194.554688 C 148.039062 193.394531 148.445312 192.210938 148.796875 191.011719 C 149.144531 189.808594 149.433594 188.589844 149.660156 187.359375 C 149.886719 186.128906 150.054688 184.890625 150.160156 183.640625 C 150.265625 182.394531 150.308594 181.144531 150.289062 179.894531 L 150.289062 176.492188 C 147.375 174.421875 144.65625 172.125 142.125 169.601562 Z M 142.125 169.601562 " fill-opacity="1" fill-rule="nonzero"/></g><g clip-path="url(#d44096b8db)"><path fill="#ffffff" d="M 78.160156 81.941406 C 76.902344 84.882812 75.15625 87.5 72.925781 89.792969 L 73.476562 91.039062 L 73.476562 91.167969 L 91.144531 91.167969 L 91.144531 45.082031 C 91.15625 44.390625 91.207031 43.707031 91.285156 43.023438 C 91.367188 42.339844 91.480469 41.660156 91.625 40.988281 C 91.773438 40.316406 91.949219 39.652344 92.160156 38.996094 C 92.371094 38.339844 92.613281 37.695312 92.886719 37.0625 C 93.160156 36.433594 93.464844 35.816406 93.796875 35.210938 C 94.128906 34.609375 94.488281 34.023438 94.878906 33.457031 C 95.269531 32.890625 95.6875 32.34375 96.128906 31.816406 C 96.570312 31.289062 97.039062 30.78125 97.53125 30.300781 C 98.023438 29.820312 98.535156 29.363281 99.070312 28.929688 C 99.609375 28.5 100.164062 28.09375 100.738281 27.714844 C 101.3125 27.335938 101.90625 26.988281 102.515625 26.667969 C 103.125 26.347656 103.75 26.054688 104.386719 25.796875 C 105.023438 25.535156 105.671875 25.304688 106.332031 25.109375 C 106.992188 24.910156 107.660156 24.746094 108.332031 24.613281 C 109.007812 24.480469 109.691406 24.382812 110.375 24.316406 C 111.058594 24.25 111.746094 24.214844 112.4375 24.214844 C 113.125 24.214844 113.8125 24.25 114.496094 24.316406 C 115.179688 24.382812 115.863281 24.480469 116.539062 24.613281 C 117.214844 24.746094 117.878906 24.910156 118.539062 25.109375 C 119.199219 25.304688 119.847656 25.535156 120.484375 25.796875 C 121.125 26.054688 121.746094 26.347656 122.355469 26.667969 C 122.964844 26.988281 123.558594 27.335938 124.132812 27.714844 C 124.707031 28.09375 125.261719 28.5 125.800781 28.929688 C 126.335938 29.363281 126.847656 29.820312 127.339844 30.300781 C 127.832031 30.78125 128.300781 31.289062 128.742188 31.816406 C 129.1875 32.34375 129.601562 32.890625 129.992188 33.457031 C 130.382812 34.023438 130.742188 34.609375 131.074219 35.210938 C 131.410156 35.816406 131.710938 36.433594 131.984375 37.0625 C 132.257812 37.695312 132.5 38.339844 132.710938 38.996094 C 132.921875 39.652344 133.097656 40.316406 133.246094 40.988281 C 133.390625 41.660156 133.503906 42.339844 133.585938 43.023438 C 133.667969 43.707031 133.714844 44.390625 133.726562 45.082031 L 133.726562 91.203125 L 141.644531 91.203125 C 142.949219 90.574219 144.304688 90.097656 145.714844 89.773438 C 147.128906 89.449219 148.558594 89.289062 150.003906 89.289062 C 151.453125 89.289062 152.882812 89.449219 154.292969 89.773438 C 155.703125 90.097656 157.058594 90.574219 158.363281 91.203125 L 179.832031 91.203125 C 180.53125 91.207031 181.226562 91.238281 181.917969 91.308594 C 182.613281 91.378906 183.300781 91.480469 183.984375 91.617188 C 184.667969 91.753906 185.34375 91.925781 186.011719 92.125 C 186.675781 92.328125 187.332031 92.566406 187.976562 92.832031 C 188.621094 93.097656 189.25 93.398438 189.863281 93.726562 C 190.476562 94.054688 191.074219 94.414062 191.652344 94.800781 C 192.234375 95.1875 192.792969 95.601562 193.332031 96.042969 C 193.871094 96.488281 194.386719 96.953125 194.878906 97.445312 C 195.371094 97.941406 195.839844 98.457031 196.28125 98.992188 C 196.722656 99.53125 197.136719 100.089844 197.523438 100.671875 C 197.914062 101.25 198.269531 101.847656 198.597656 102.460938 C 198.929688 103.078125 199.226562 103.707031 199.492188 104.347656 C 199.761719 104.992188 199.996094 105.648438 200.199219 106.316406 C 200.402344 106.980469 200.570312 107.65625 200.707031 108.339844 C 200.84375 109.023438 200.945312 109.710938 201.015625 110.40625 C 201.085938 111.097656 201.121094 111.792969 201.121094 112.492188 C 201.121094 113.789062 201 115.070312 200.761719 116.347656 C 206.773438 117.539062 211.8125 119.894531 214.785156 125.171875 C 214.941406 125.449219 215.074219 125.738281 215.214844 126.042969 L 215.773438 124.367188 C 216.003906 123.660156 216.21875 122.949219 216.410156 122.226562 C 216.601562 121.507812 216.769531 120.78125 216.921875 120.050781 C 217.070312 119.320312 217.195312 118.585938 217.300781 117.847656 C 217.40625 117.113281 217.488281 116.371094 217.550781 115.628906 C 217.613281 114.886719 217.652344 114.140625 217.671875 113.398438 C 217.6875 112.652344 217.683594 111.90625 217.65625 111.160156 C 217.632812 110.417969 217.582031 109.671875 217.511719 108.929688 C 217.441406 108.191406 217.351562 107.449219 217.234375 106.714844 C 217.121094 105.976562 216.988281 105.246094 216.828125 104.515625 C 216.671875 103.789062 216.492188 103.066406 216.292969 102.347656 C 216.09375 101.628906 215.871094 100.917969 215.628906 100.210938 C 215.386719 99.507812 215.125 98.808594 214.84375 98.121094 C 214.558594 97.429688 214.257812 96.75 213.933594 96.078125 C 213.609375 95.40625 213.265625 94.746094 212.902344 94.09375 C 212.542969 93.445312 212.160156 92.804688 211.757812 92.175781 C 211.359375 91.546875 210.941406 90.929688 210.503906 90.328125 C 210.066406 89.722656 209.613281 89.132812 209.140625 88.554688 C 208.667969 87.976562 208.179688 87.414062 207.675781 86.867188 C 207.171875 86.320312 206.652344 85.785156 206.113281 85.269531 C 205.578125 84.75 205.027344 84.25 204.460938 83.765625 C 203.894531 83.28125 203.316406 82.8125 202.722656 82.363281 C 202.128906 81.910156 201.523438 81.480469 200.902344 81.0625 C 200.285156 80.648438 199.652344 80.253906 199.011719 79.875 C 198.367188 79.496094 197.714844 79.140625 197.050781 78.800781 C 196.386719 78.460938 195.714844 78.140625 195.03125 77.84375 C 194.347656 77.542969 193.65625 77.265625 192.957031 77.007812 C 192.257812 76.75 191.554688 76.511719 190.839844 76.292969 C 190.125 76.078125 189.40625 75.882812 188.683594 75.707031 C 187.957031 75.535156 187.230469 75.382812 186.496094 75.25 C 185.761719 75.121094 185.023438 75.011719 184.285156 74.921875 C 183.546875 74.835938 182.804688 74.769531 182.058594 74.726562 C 181.316406 74.683594 180.570312 74.660156 179.824219 74.660156 L 150.289062 74.660156 L 150.289062 45.082031 C 150.269531 43.851562 150.191406 42.628906 150.054688 41.410156 C 149.914062 40.1875 149.71875 38.976562 149.464844 37.777344 C 149.207031 36.578125 148.894531 35.390625 148.523438 34.21875 C 148.152344 33.050781 147.726562 31.898438 147.242188 30.769531 C 146.761719 29.640625 146.222656 28.539062 145.632812 27.460938 C 145.042969 26.386719 144.402344 25.339844 143.710938 24.324219 C 143.019531 23.3125 142.28125 22.332031 141.492188 21.390625 C 140.707031 20.449219 139.875 19.546875 139 18.683594 C 138.125 17.824219 137.210938 17.003906 136.257812 16.234375 C 135.300781 15.460938 134.3125 14.734375 133.289062 14.058594 C 132.261719 13.382812 131.207031 12.757812 130.121094 12.183594 C 129.035156 11.609375 127.925781 11.089844 126.789062 10.625 C 125.652344 10.160156 124.496094 9.75 123.320312 9.398438 C 122.144531 9.042969 120.957031 8.75 119.75 8.511719 C 118.546875 8.273438 117.332031 8.097656 116.109375 7.976562 C 114.886719 7.859375 113.664062 7.796875 112.4375 7.796875 C 111.207031 7.796875 109.984375 7.859375 108.761719 7.976562 C 107.539062 8.097656 106.324219 8.273438 105.121094 8.511719 C 103.917969 8.75 102.726562 9.042969 101.550781 9.398438 C 100.375 9.75 99.21875 10.160156 98.082031 10.625 C 96.945312 11.089844 95.835938 11.609375 94.75 12.183594 C 93.664062 12.757812 92.609375 13.382812 91.582031 14.058594 C 90.558594 14.734375 89.570312 15.460938 88.613281 16.234375 C 87.660156 17.003906 86.746094 17.824219 85.871094 18.683594 C 84.996094 19.546875 84.164062 20.449219 83.378906 21.390625 C 82.589844 22.332031 81.851562 23.3125 81.160156 24.324219 C 80.46875 25.339844 79.828125 26.386719 79.238281 27.460938 C 78.648438 28.539062 78.109375 29.640625 77.628906 30.769531 C 77.144531 31.898438 76.71875 33.050781 76.347656 34.21875 C 75.976562 35.390625 75.664062 36.578125 75.40625 37.777344 C 75.152344 38.976562 74.957031 40.1875 74.816406 41.410156 C 74.679688 42.628906 74.601562 43.851562 74.582031 45.082031 L 74.582031 45.777344 C 79.03125 56.625 81.578125 73.640625 78.160156 81.941406 Z M 78.160156 81.941406 " fill-opacity="1" fill-rule="nonzero"/></g><path fill="#f1f1f1" d="M 19.15625 62.523438 C 19.878906 67.972656 25.425781 77.714844 32.0625 85.195312 C 34.792969 88.265625 38.847656 92.214844 42.664062 93.621094 C 46.171875 94.824219 49.757812 95.15625 53.425781 94.613281 L 55.335938 98.972656 C 55.621094 99.628906 56.046875 100.179688 56.613281 100.617188 C 57.179688 101.058594 57.8125 101.335938 58.519531 101.449219 L 58.71875 102.085938 L 60.726562 101.214844 C 60.925781 101.78125 61.136719 102.296875 61.355469 102.792969 C 62.6875 105.84375 64.457031 108.613281 66.664062 111.105469 C 68.578125 113.21875 70.722656 115.058594 73.101562 116.628906 C 75.480469 118.199219 78.019531 119.449219 80.714844 120.375 C 88.511719 123.175781 95.058594 122.242188 100.851562 121.414062 C 110.757812 119.992188 117.304688 119.058594 126.304688 138.050781 C 131.484375 149.003906 138.332031 158.972656 145.550781 166.148438 C 154.140625 174.660156 163.265625 179.230469 171.933594 179.457031 C 184.804688 179.703125 196.125 170.867188 205.542969 153.078125 C 211.953125 141.007812 213.546875 132.871094 210.546875 127.570312 C 206.832031 120.976562 197.683594 120.460938 187.082031 119.859375 C 179.003906 119.40625 169.882812 118.890625 162.664062 115.5 C 162.945312 114.988281 163.195312 114.460938 163.414062 113.921875 C 163.632812 113.378906 163.820312 112.824219 163.96875 112.261719 C 164.121094 111.695312 164.238281 111.125 164.320312 110.546875 C 164.402344 109.96875 164.449219 109.386719 164.460938 108.800781 C 164.472656 108.21875 164.445312 107.632812 164.386719 107.050781 C 164.328125 106.472656 164.230469 105.894531 164.101562 105.324219 C 163.972656 104.757812 163.808594 104.195312 163.609375 103.644531 C 163.414062 103.097656 163.183594 102.5625 162.917969 102.039062 C 162.65625 101.515625 162.363281 101.011719 162.035156 100.527344 C 161.710938 100.042969 161.359375 99.578125 160.976562 99.132812 C 160.597656 98.691406 160.191406 98.273438 159.757812 97.878906 C 159.328125 97.484375 158.871094 97.117188 158.394531 96.78125 C 157.917969 96.441406 157.425781 96.132812 156.910156 95.855469 C 156.394531 95.578125 155.867188 95.332031 155.324219 95.117188 C 154.777344 94.90625 154.222656 94.726562 153.660156 94.578125 C 153.09375 94.433594 152.519531 94.320312 151.941406 94.246094 C 151.359375 94.167969 150.777344 94.128906 150.195312 94.121094 C 149.609375 94.117188 149.027344 94.144531 148.445312 94.210938 C 147.867188 94.277344 147.292969 94.375 146.722656 94.511719 C 146.152344 94.648438 145.597656 94.816406 145.046875 95.019531 C 144.5 95.222656 143.964844 95.457031 143.445312 95.726562 C 142.929688 95.996094 142.425781 96.292969 141.945312 96.621094 C 141.460938 96.949219 141 97.308594 140.558594 97.691406 C 140.121094 98.078125 139.707031 98.488281 139.316406 98.925781 C 138.925781 99.359375 138.566406 99.816406 138.230469 100.296875 C 137.898438 100.777344 137.59375 101.277344 137.320312 101.792969 C 137.046875 102.308594 136.804688 102.839844 136.597656 103.386719 C 136.390625 103.933594 136.214844 104.488281 136.074219 105.054688 C 135.933594 105.621094 135.828125 106.195312 135.757812 106.777344 C 135.683594 107.355469 135.648438 107.9375 135.648438 108.523438 C 135.648438 109.109375 135.683594 109.691406 135.753906 110.269531 C 135.824219 110.851562 135.929688 111.425781 136.070312 111.992188 C 136.210938 112.558594 136.386719 113.117188 136.59375 113.660156 C 136.804688 114.207031 137.042969 114.738281 137.316406 115.253906 C 137.589844 115.773438 137.894531 116.269531 138.226562 116.75 C 138.558594 117.230469 138.921875 117.6875 139.3125 118.125 C 139.699219 118.558594 140.113281 118.972656 140.554688 119.355469 C 140.992188 119.742188 141.453125 120.097656 141.9375 120.429688 C 142.417969 120.757812 142.921875 121.058594 143.441406 121.324219 C 143.960938 121.59375 144.492188 121.828125 145.039062 122.03125 C 145.589844 122.238281 146.148438 122.40625 146.714844 122.542969 C 147.285156 122.675781 147.859375 122.777344 148.4375 122.84375 C 149.019531 122.910156 149.601562 122.9375 150.1875 122.933594 C 150.769531 122.929688 151.351562 122.886719 151.933594 122.8125 C 152.511719 122.734375 153.085938 122.625 153.652344 122.476562 C 154.214844 122.332031 154.773438 122.152344 155.316406 121.941406 C 155.859375 121.726562 156.390625 121.480469 156.902344 121.203125 C 157.417969 120.925781 157.914062 120.617188 158.390625 120.277344 C 167.109375 124.902344 177.523438 125.511719 186.757812 126.015625 C 195.183594 126.488281 203.136719 126.941406 205.183594 130.585938 C 206.433594 132.785156 206.554688 137.964844 200.101562 150.15625 C 191.832031 165.730469 182.390625 173.535156 172.070312 173.273438 C 155.503906 172.910156 140.066406 152.660156 131.90625 135.4375 C 120.941406 112.316406 110.285156 113.84375 99.96875 115.316406 C 94.648438 116.074219 89.15625 116.871094 82.808594 114.585938 C 72.753906 110.972656 68.3125 104.164062 66.359375 98.773438 L 66.789062 98.589844 C 67.042969 98.480469 67.28125 98.34375 67.507812 98.1875 C 67.738281 98.027344 67.945312 97.847656 68.140625 97.648438 C 68.332031 97.449219 68.503906 97.230469 68.652344 96.996094 C 68.800781 96.765625 68.925781 96.519531 69.027344 96.257812 C 69.128906 96 69.203125 95.734375 69.253906 95.460938 C 69.300781 95.191406 69.324219 94.914062 69.320312 94.636719 C 69.3125 94.359375 69.28125 94.085938 69.222656 93.816406 C 69.164062 93.542969 69.078125 93.28125 68.96875 93.027344 L 67.050781 88.667969 C 69.9375 86.34375 72.132812 83.484375 73.632812 80.09375 C 77.3125 71.242188 72.558594 48.699219 66.796875 41.722656 C 64.179688 38.609375 60.210938 36.8125 55.1875 36.492188 C 54.867188 35.894531 54.472656 35.351562 54 34.863281 C 53.53125 34.375 53.007812 33.960938 52.425781 33.613281 C 51.84375 33.265625 51.226562 33.003906 50.574219 32.824219 C 49.921875 32.644531 49.253906 32.558594 48.578125 32.558594 C 48.269531 32.558594 47.960938 32.578125 47.65625 32.617188 C 47.347656 32.65625 47.046875 32.714844 46.746094 32.789062 C 46.449219 32.867188 46.15625 32.960938 45.867188 33.074219 C 45.578125 33.183594 45.300781 33.316406 45.027344 33.460938 C 44.757812 33.609375 44.496094 33.773438 44.246094 33.953125 C 43.992188 34.132812 43.753906 34.328125 43.527344 34.535156 C 43.300781 34.746094 43.085938 34.96875 42.886719 35.203125 C 42.6875 35.4375 42.503906 35.683594 42.332031 35.945312 C 42.164062 36.203125 42.011719 36.46875 41.875 36.746094 C 41.738281 37.023438 41.621094 37.308594 41.519531 37.601562 C 41.421875 37.894531 41.339844 38.191406 41.273438 38.492188 C 41.210938 38.792969 41.164062 39.097656 41.140625 39.40625 C 41.113281 39.714844 41.105469 40.023438 41.117188 40.332031 C 41.128906 40.640625 41.160156 40.945312 41.210938 41.25 C 41.261719 41.554688 41.332031 41.855469 41.417969 42.152344 C 41.503906 42.449219 41.609375 42.738281 41.734375 43.023438 C 42.03125 43.703125 42.421875 44.324219 42.90625 44.890625 C 43.386719 45.453125 43.941406 45.9375 44.570312 46.335938 C 45.195312 46.734375 45.867188 47.035156 46.582031 47.234375 C 47.296875 47.433594 48.027344 47.523438 48.769531 47.507812 C 49.511719 47.488281 50.238281 47.363281 50.941406 47.132812 C 51.648438 46.898438 52.304688 46.570312 52.910156 46.140625 C 53.519531 45.714844 54.050781 45.207031 54.507812 44.621094 C 54.964844 44.035156 55.324219 43.394531 55.589844 42.699219 C 58.398438 42.988281 60.507812 43.910156 61.886719 45.464844 L 62.027344 45.628906 C 64.066406 48.089844 66.316406 54.402344 67.625 61.328125 C 68.933594 68.25 69.0625 74.886719 67.914062 77.652344 C 65.8125 82.71875 60.0625 86.121094 58.277344 87.089844 C 56.332031 87.757812 49.957031 89.652344 44.800781 87.75 C 41.996094 86.722656 37.257812 82.179688 33.019531 76.414062 C 28.78125 70.648438 25.710938 64.796875 25.292969 61.589844 C 25.007812 59.46875 25.757812 57.226562 27.519531 54.875 C 27.804688 54.988281 28.09375 55.082031 28.390625 55.160156 C 28.6875 55.238281 28.988281 55.300781 29.292969 55.339844 C 29.597656 55.382812 29.90625 55.402344 30.210938 55.40625 C 30.519531 55.410156 30.824219 55.394531 31.132812 55.363281 C 31.4375 55.328125 31.738281 55.273438 32.039062 55.203125 C 32.335938 55.132812 32.628906 55.042969 32.917969 54.933594 C 33.207031 54.828125 33.484375 54.703125 33.757812 54.558594 C 34.03125 54.417969 34.292969 54.261719 34.546875 54.085938 C 34.800781 53.910156 35.042969 53.722656 35.269531 53.519531 C 35.5 53.3125 35.71875 53.097656 35.921875 52.867188 C 36.125 52.636719 36.3125 52.394531 36.484375 52.140625 C 36.65625 51.886719 36.816406 51.621094 36.957031 51.347656 C 37.097656 51.074219 37.21875 50.796875 37.324219 50.507812 C 37.433594 50.21875 37.519531 49.925781 37.589844 49.625 C 37.660156 49.324219 37.710938 49.023438 37.746094 48.71875 C 37.777344 48.414062 37.792969 48.105469 37.785156 47.800781 C 37.78125 47.492188 37.757812 47.1875 37.714844 46.882812 C 37.671875 46.578125 37.613281 46.277344 37.53125 45.980469 C 37.453125 45.683594 37.355469 45.390625 37.242188 45.105469 C 37.125 44.824219 36.992188 44.546875 36.84375 44.277344 C 36.695312 44.007812 36.53125 43.75 36.347656 43.5 C 36.167969 43.253906 35.972656 43.015625 35.761719 42.792969 C 35.550781 42.570312 35.328125 42.359375 35.09375 42.160156 C 34.855469 41.964844 34.609375 41.785156 34.351562 41.617188 C 34.089844 41.449219 33.824219 41.300781 33.546875 41.167969 C 33.269531 41.035156 32.984375 40.917969 32.695312 40.820312 C 32.402344 40.722656 32.109375 40.640625 31.808594 40.578125 C 31.507812 40.519531 31.203125 40.476562 30.894531 40.449219 C 30.589844 40.425781 30.28125 40.417969 29.976562 40.433594 C 29.667969 40.445312 29.363281 40.476562 29.0625 40.527344 C 28.757812 40.578125 28.457031 40.648438 28.164062 40.734375 C 27.871094 40.824219 27.582031 40.929688 27.300781 41.050781 C 26.867188 41.238281 26.457031 41.464844 26.066406 41.730469 C 25.675781 41.996094 25.3125 42.296875 24.980469 42.628906 C 24.648438 42.964844 24.347656 43.328125 24.082031 43.714844 C 23.816406 44.105469 23.589844 44.519531 23.402344 44.949219 C 23.214844 45.382812 23.070312 45.832031 22.964844 46.289062 C 22.863281 46.75 22.800781 47.21875 22.785156 47.6875 C 22.769531 48.160156 22.800781 48.628906 22.871094 49.09375 C 22.945312 49.5625 23.058594 50.015625 23.21875 50.460938 C 20.027344 54.359375 18.621094 58.519531 19.15625 62.523438 Z M 19.15625 62.523438 " fill-opacity="1" fill-rule="nonzero"/></svg>