<svg xmlns="http://www.w3.org/2000/svg" xmlns:xlink="http://www.w3.org/1999/xlink" width="300" zoomAndPan="magnify" viewBox="0 0 224.87999 74.999997" height="100" preserveAspectRatio="xMidYMid meet" version="1.0"><defs><g/><clipPath id="31cbfe00b7"><path d="M 92.671875 20 L 120 20 L 120 46.167969 L 92.671875 46.167969 Z M 92.671875 20 " clip-rule="nonzero"/></clipPath><clipPath id="a91ce171f8"><path d="M 104 6.636719 L 132.203125 6.636719 L 132.203125 29 L 104 29 Z M 104 6.636719 " clip-rule="nonzero"/></clipPath></defs><g clip-path="url(#31cbfe00b7)"><path fill="#9f46f8" d="M 118.066406 37.234375 C 117.492188 36.65625 116.960938 36.042969 116.476562 35.386719 L 116.476562 39.191406 C 116.480469 39.460938 116.460938 39.726562 116.410156 39.992188 C 116.363281 40.257812 116.289062 40.515625 116.191406 40.765625 C 116.09375 41.011719 115.96875 41.25 115.824219 41.476562 C 115.675781 41.703125 115.507812 41.910156 115.320312 42.101562 C 115.132812 42.292969 114.929688 42.464844 114.707031 42.617188 C 114.484375 42.765625 114.25 42.894531 114 43 C 113.753906 43.101562 113.496094 43.179688 113.234375 43.234375 C 112.972656 43.289062 112.707031 43.3125 112.4375 43.3125 C 112.167969 43.3125 111.902344 43.289062 111.636719 43.234375 C 111.375 43.179688 111.121094 43.101562 110.871094 43 C 110.625 42.894531 110.390625 42.765625 110.167969 42.617188 C 109.945312 42.464844 109.738281 42.292969 109.550781 42.101562 C 109.363281 41.910156 109.195312 41.703125 109.050781 41.476562 C 108.902344 41.25 108.78125 41.011719 108.683594 40.765625 C 108.582031 40.515625 108.507812 40.257812 108.460938 39.992188 C 108.414062 39.726562 108.394531 39.460938 108.398438 39.191406 L 108.398438 30.441406 L 99.648438 30.441406 C 99.222656 30.441406 98.804688 30.375 98.398438 30.242188 C 97.992188 30.109375 97.617188 29.917969 97.273438 29.667969 C 96.925781 29.417969 96.628906 29.117188 96.378906 28.769531 C 96.128906 28.425781 95.9375 28.050781 95.804688 27.640625 C 95.675781 27.234375 95.609375 26.820312 95.613281 26.390625 C 95.613281 25.964844 95.679688 25.546875 95.816406 25.140625 C 95.949219 24.738281 96.140625 24.363281 96.394531 24.015625 C 96.648438 23.671875 96.949219 23.375 97.292969 23.125 L 97.601562 22.90625 C 97.207031 22.578125 96.839844 22.21875 96.5 21.835938 C 96.140625 21.425781 95.800781 21 95.488281 20.554688 L 95.339844 20.664062 C 94.738281 21.117188 94.21875 21.648438 93.785156 22.265625 C 93.351562 22.878906 93.023438 23.546875 92.796875 24.265625 C 92.574219 24.984375 92.464844 25.722656 92.472656 26.476562 C 92.480469 27.226562 92.601562 27.960938 92.839844 28.675781 C 93.078125 29.390625 93.421875 30.050781 93.867188 30.65625 C 94.3125 31.265625 94.84375 31.789062 95.453125 32.226562 C 96.066406 32.667969 96.730469 33.003906 97.445312 33.234375 C 98.160156 33.464844 98.898438 33.582031 99.648438 33.582031 L 105.257812 33.582031 L 105.257812 39.1875 C 105.25 39.664062 105.289062 40.132812 105.375 40.601562 C 105.460938 41.070312 105.59375 41.527344 105.773438 41.96875 C 105.949219 42.410156 106.167969 42.828125 106.429688 43.226562 C 106.691406 43.625 106.988281 43.996094 107.320312 44.335938 C 107.65625 44.671875 108.019531 44.976562 108.414062 45.242188 C 108.808594 45.507812 109.222656 45.734375 109.664062 45.917969 C 110.101562 46.101562 110.554688 46.242188 111.023438 46.335938 C 111.488281 46.429688 111.960938 46.476562 112.4375 46.476562 C 112.914062 46.476562 113.382812 46.429688 113.851562 46.335938 C 114.316406 46.242188 114.769531 46.101562 115.210938 45.917969 C 115.648438 45.734375 116.066406 45.507812 116.460938 45.242188 C 116.855469 44.976562 117.21875 44.671875 117.550781 44.335938 C 117.886719 43.996094 118.183594 43.625 118.445312 43.226562 C 118.707031 42.828125 118.925781 42.410156 119.101562 41.96875 C 119.277344 41.527344 119.410156 41.070312 119.496094 40.601562 C 119.582031 40.132812 119.625 39.664062 119.617188 39.1875 L 119.617188 38.542969 C 119.0625 38.148438 118.546875 37.714844 118.066406 37.234375 Z M 118.066406 37.234375 " fill-opacity="1" fill-rule="nonzero"/></g><g clip-path="url(#a91ce171f8)"><path fill="#c084fc" d="M 105.933594 20.609375 C 105.695312 21.164062 105.367188 21.660156 104.941406 22.097656 L 105.046875 22.332031 L 105.046875 22.359375 L 108.398438 22.359375 L 108.398438 13.617188 C 108.410156 13.085938 108.519531 12.582031 108.730469 12.09375 C 108.9375 11.609375 109.230469 11.183594 109.609375 10.8125 C 109.988281 10.441406 110.421875 10.15625 110.910156 9.957031 C 111.398438 9.757812 111.90625 9.660156 112.4375 9.660156 C 112.964844 9.660156 113.472656 9.757812 113.964844 9.957031 C 114.453125 10.15625 114.886719 10.441406 115.265625 10.8125 C 115.640625 11.183594 115.933594 11.609375 116.144531 12.09375 C 116.355469 12.582031 116.464844 13.085938 116.476562 13.617188 L 116.476562 22.363281 L 117.976562 22.363281 C 118.476562 22.121094 119.007812 22 119.5625 22 C 120.117188 22 120.648438 22.121094 121.148438 22.363281 L 125.21875 22.363281 C 125.484375 22.363281 125.746094 22.390625 126.007812 22.441406 C 126.265625 22.496094 126.519531 22.570312 126.765625 22.671875 C 127.007812 22.773438 127.242188 22.898438 127.460938 23.046875 C 127.683594 23.195312 127.886719 23.359375 128.074219 23.546875 C 128.261719 23.734375 128.429688 23.941406 128.574219 24.160156 C 128.722656 24.378906 128.847656 24.613281 128.949219 24.859375 C 129.050781 25.101562 129.128906 25.355469 129.179688 25.613281 C 129.230469 25.875 129.257812 26.136719 129.257812 26.402344 C 129.257812 26.648438 129.234375 26.890625 129.191406 27.132812 C 130.328125 27.359375 131.285156 27.804688 131.851562 28.808594 C 131.878906 28.859375 131.90625 28.914062 131.929688 28.972656 L 132.035156 28.65625 C 132.125 28.386719 132.199219 28.113281 132.253906 27.835938 C 132.3125 27.558594 132.351562 27.277344 132.375 26.996094 C 132.398438 26.714844 132.40625 26.433594 132.394531 26.148438 C 132.382812 25.867188 132.359375 25.585938 132.316406 25.304688 C 132.269531 25.027344 132.210938 24.75 132.136719 24.476562 C 132.058594 24.207031 131.96875 23.9375 131.859375 23.675781 C 131.753906 23.414062 131.628906 23.160156 131.492188 22.914062 C 131.355469 22.664062 131.203125 22.425781 131.039062 22.199219 C 130.871094 21.96875 130.691406 21.75 130.5 21.542969 C 130.308594 21.332031 130.105469 21.136719 129.890625 20.953125 C 129.675781 20.769531 129.453125 20.597656 129.214844 20.441406 C 128.980469 20.285156 128.738281 20.140625 128.484375 20.011719 C 128.234375 19.882812 127.976562 19.769531 127.710938 19.671875 C 127.445312 19.574219 127.175781 19.492188 126.898438 19.425781 C 126.625 19.359375 126.34375 19.308594 126.066406 19.277344 C 125.785156 19.242188 125.5 19.226562 125.21875 19.226562 L 119.617188 19.226562 L 119.617188 13.617188 C 119.609375 13.148438 119.558594 12.6875 119.460938 12.230469 C 119.363281 11.773438 119.222656 11.332031 119.039062 10.902344 C 118.855469 10.472656 118.632812 10.066406 118.367188 9.679688 C 118.105469 9.292969 117.808594 8.9375 117.476562 8.609375 C 117.144531 8.28125 116.78125 7.988281 116.390625 7.730469 C 116.003906 7.476562 115.589844 7.257812 115.160156 7.082031 C 114.726562 6.902344 114.28125 6.769531 113.824219 6.679688 C 113.367188 6.589844 112.902344 6.542969 112.4375 6.542969 C 111.96875 6.542969 111.507812 6.589844 111.050781 6.679688 C 110.589844 6.769531 110.144531 6.902344 109.714844 7.082031 C 109.28125 7.257812 108.871094 7.476562 108.480469 7.730469 C 108.089844 7.988281 107.730469 8.28125 107.398438 8.609375 C 107.066406 8.9375 106.765625 9.292969 106.503906 9.679688 C 106.242188 10.066406 106.019531 10.472656 105.835938 10.902344 C 105.652344 11.332031 105.511719 11.773438 105.414062 12.230469 C 105.316406 12.6875 105.265625 13.148438 105.257812 13.617188 L 105.257812 13.75 C 106.101562 15.804688 106.582031 19.03125 105.933594 20.609375 Z M 105.933594 20.609375 " fill-opacity="1" fill-rule="nonzero"/></g><path fill="#9f46f8" d="M 94.742188 16.925781 C 94.882812 17.957031 95.933594 19.804688 97.191406 21.226562 C 97.710938 21.808594 98.480469 22.554688 99.203125 22.824219 C 99.867188 23.050781 100.546875 23.113281 101.246094 23.011719 L 101.605469 23.839844 C 101.722656 24.105469 101.921875 24.261719 102.210938 24.308594 L 102.25 24.429688 L 102.628906 24.261719 C 102.667969 24.371094 102.707031 24.46875 102.746094 24.5625 C 103 25.140625 103.335938 25.667969 103.753906 26.140625 C 104.492188 26.953125 105.378906 27.539062 106.417969 27.898438 C 107.898438 28.429688 109.140625 28.25 110.238281 28.09375 C 112.117188 27.824219 113.359375 27.648438 115.066406 31.25 C 116.050781 33.328125 117.347656 35.21875 118.71875 36.578125 C 120.347656 38.195312 122.078125 39.0625 123.722656 39.105469 C 126.164062 39.148438 128.308594 37.472656 130.097656 34.101562 C 131.3125 31.8125 131.613281 30.269531 131.046875 29.261719 C 130.339844 28.011719 128.605469 27.914062 126.59375 27.800781 C 125.0625 27.714844 123.332031 27.617188 121.964844 26.972656 C 122.070312 26.777344 122.152344 26.574219 122.210938 26.359375 C 122.269531 26.144531 122.300781 25.925781 122.304688 25.703125 C 122.308594 25.480469 122.285156 25.261719 122.238281 25.042969 C 122.1875 24.824219 122.113281 24.617188 122.011719 24.417969 C 121.910156 24.222656 121.789062 24.035156 121.644531 23.867188 C 121.5 23.699219 121.335938 23.550781 121.152344 23.421875 C 120.972656 23.292969 120.777344 23.1875 120.570312 23.105469 C 120.363281 23.027344 120.148438 22.96875 119.929688 22.941406 C 119.707031 22.910156 119.488281 22.910156 119.265625 22.933594 C 119.046875 22.960938 118.832031 23.011719 118.621094 23.089844 C 118.414062 23.164062 118.21875 23.265625 118.035156 23.390625 C 117.847656 23.515625 117.683594 23.664062 117.535156 23.828125 C 117.386719 23.996094 117.261719 24.175781 117.15625 24.371094 C 117.050781 24.570312 116.972656 24.777344 116.921875 24.992188 C 116.867188 25.207031 116.839844 25.425781 116.839844 25.648438 C 116.839844 25.871094 116.867188 26.089844 116.917969 26.308594 C 116.972656 26.523438 117.050781 26.730469 117.15625 26.925781 C 117.261719 27.125 117.386719 27.304688 117.535156 27.46875 C 117.683594 27.636719 117.847656 27.78125 118.03125 27.90625 C 118.214844 28.03125 118.414062 28.132812 118.621094 28.210938 C 118.828125 28.289062 119.042969 28.339844 119.265625 28.367188 C 119.488281 28.390625 119.707031 28.386719 119.929688 28.359375 C 120.148438 28.332031 120.363281 28.273438 120.570312 28.195312 C 120.777344 28.113281 120.972656 28.007812 121.152344 27.878906 C 122.808594 28.753906 124.78125 28.871094 126.535156 28.96875 C 128.132812 29.058594 129.640625 29.144531 130.027344 29.835938 C 130.265625 30.25 130.289062 31.234375 129.0625 33.546875 C 127.496094 36.5 125.703125 37.980469 123.75 37.929688 C 120.605469 37.863281 117.675781 34.019531 116.128906 30.753906 C 114.050781 26.367188 112.027344 26.660156 110.070312 26.9375 C 109.0625 27.082031 108.019531 27.230469 106.816406 26.800781 C 104.910156 26.113281 104.066406 24.824219 103.695312 23.800781 L 103.777344 23.765625 C 103.980469 23.675781 104.121094 23.527344 104.203125 23.324219 C 104.285156 23.117188 104.28125 22.914062 104.191406 22.710938 L 103.828125 21.882812 C 104.375 21.441406 104.792969 20.898438 105.078125 20.257812 C 105.773438 18.578125 104.875 14.300781 103.78125 12.980469 C 103.285156 12.386719 102.53125 12.046875 101.578125 11.988281 C 101.453125 11.757812 101.277344 11.574219 101.054688 11.441406 C 100.828125 11.308594 100.585938 11.242188 100.324219 11.242188 C 100.207031 11.242188 100.089844 11.253906 99.976562 11.285156 C 99.863281 11.3125 99.753906 11.355469 99.652344 11.414062 C 99.546875 11.46875 99.453125 11.535156 99.367188 11.617188 C 99.28125 11.695312 99.203125 11.785156 99.140625 11.882812 C 99.074219 11.980469 99.023438 12.085938 98.984375 12.199219 C 98.949219 12.308594 98.921875 12.421875 98.914062 12.539062 C 98.902344 12.65625 98.90625 12.773438 98.925781 12.890625 C 98.945312 13.003906 98.980469 13.117188 99.027344 13.226562 C 99.140625 13.488281 99.320312 13.699219 99.5625 13.855469 C 99.808594 14.007812 100.074219 14.082031 100.359375 14.078125 C 100.648438 14.070312 100.910156 13.984375 101.144531 13.816406 C 101.382812 13.652344 101.550781 13.433594 101.65625 13.164062 C 102.1875 13.21875 102.585938 13.394531 102.847656 13.6875 L 102.875 13.71875 C 103.261719 14.1875 103.6875 15.382812 103.9375 16.699219 C 104.183594 18.011719 104.210938 19.269531 103.992188 19.792969 C 103.59375 20.753906 102.503906 21.398438 102.164062 21.582031 C 101.796875 21.710938 100.585938 22.070312 99.609375 21.710938 C 99.074219 21.515625 98.175781 20.652344 97.375 19.558594 C 96.570312 18.464844 95.988281 17.355469 95.90625 16.746094 C 95.855469 16.34375 95.996094 15.921875 96.328125 15.472656 C 96.4375 15.515625 96.550781 15.546875 96.667969 15.5625 C 96.78125 15.578125 96.898438 15.578125 97.015625 15.566406 C 97.132812 15.554688 97.246094 15.527344 97.355469 15.484375 C 97.464844 15.445312 97.566406 15.390625 97.664062 15.324219 C 97.757812 15.257812 97.847656 15.179688 97.921875 15.09375 C 98 15.003906 98.066406 14.910156 98.121094 14.804688 C 98.171875 14.699219 98.214844 14.59375 98.242188 14.476562 C 98.265625 14.363281 98.28125 14.25 98.277344 14.132812 C 98.277344 14.015625 98.261719 13.898438 98.230469 13.785156 C 98.199219 13.671875 98.15625 13.566406 98.097656 13.464844 C 98.042969 13.359375 97.972656 13.265625 97.894531 13.183594 C 97.8125 13.097656 97.722656 13.023438 97.625 12.960938 C 97.527344 12.894531 97.421875 12.84375 97.3125 12.808594 C 97.199219 12.769531 97.085938 12.746094 96.96875 12.738281 C 96.855469 12.726562 96.738281 12.734375 96.621094 12.753906 C 96.507812 12.773438 96.394531 12.804688 96.289062 12.851562 C 96.121094 12.921875 95.976562 13.023438 95.847656 13.152344 C 95.722656 13.277344 95.621094 13.425781 95.550781 13.589844 C 95.476562 13.757812 95.4375 13.929688 95.433594 14.109375 C 95.425781 14.292969 95.453125 14.464844 95.515625 14.636719 C 94.910156 15.375 94.644531 16.164062 94.742188 16.925781 Z M 94.742188 16.925781 " fill-opacity="1" fill-rule="nonzero"/><g fill="#c084fc" fill-opacity="1"><g transform="translate(68.436102, 62.288465)"><g><path d="M 9.453125 -8.75 L 5.65625 0 L 3.65625 0 L -0.109375 -8.75 L 2.078125 -8.75 L 4.734375 -2.5 L 7.4375 -8.75 Z M 9.453125 -8.75 "/></g></g></g><g fill="#c084fc" fill-opacity="1"><g transform="translate(77.758146, 62.288465)"><g><path d="M 0.90625 -6.71875 L 2.84375 -6.71875 L 2.84375 0 L 0.90625 0 Z M 1.875 -7.65625 C 1.519531 -7.65625 1.226562 -7.757812 1 -7.96875 C 0.769531 -8.175781 0.65625 -8.4375 0.65625 -8.75 C 0.65625 -9.0625 0.769531 -9.320312 1 -9.53125 C 1.226562 -9.738281 1.519531 -9.84375 1.875 -9.84375 C 2.226562 -9.84375 2.519531 -9.738281 2.75 -9.53125 C 2.976562 -9.332031 3.09375 -9.082031 3.09375 -8.78125 C 3.09375 -8.457031 2.976562 -8.1875 2.75 -7.96875 C 2.519531 -7.757812 2.226562 -7.65625 1.875 -7.65625 Z M 1.875 -7.65625 "/></g></g></g><g fill="#c084fc" fill-opacity="1"><g transform="translate(81.519453, 62.288465)"><g><path d="M 5.234375 -0.328125 C 5.046875 -0.179688 4.8125 -0.0703125 4.53125 0 C 4.25 0.0625 3.957031 0.09375 3.65625 0.09375 C 2.851562 0.09375 2.234375 -0.109375 1.796875 -0.515625 C 1.359375 -0.921875 1.140625 -1.519531 1.140625 -2.3125 L 1.140625 -5.078125 L 0.09375 -5.078125 L 0.09375 -6.578125 L 1.140625 -6.578125 L 1.140625 -8.21875 L 3.09375 -8.21875 L 3.09375 -6.578125 L 4.765625 -6.578125 L 4.765625 -5.078125 L 3.09375 -5.078125 L 3.09375 -2.34375 C 3.09375 -2.050781 3.164062 -1.828125 3.3125 -1.671875 C 3.457031 -1.523438 3.660156 -1.453125 3.921875 -1.453125 C 4.234375 -1.453125 4.5 -1.535156 4.71875 -1.703125 Z M 5.234375 -0.328125 "/></g></g></g><g fill="#c084fc" fill-opacity="1"><g transform="translate(86.955229, 62.288465)"><g><path d="M 3.609375 -6.828125 C 4.648438 -6.828125 5.445312 -6.578125 6 -6.078125 C 6.5625 -5.585938 6.84375 -4.84375 6.84375 -3.84375 L 6.84375 0 L 5.03125 0 L 5.03125 -0.84375 C 4.65625 -0.21875 3.96875 0.09375 2.96875 0.09375 C 2.457031 0.09375 2.007812 0.0078125 1.625 -0.15625 C 1.25 -0.332031 0.960938 -0.570312 0.765625 -0.875 C 0.566406 -1.1875 0.46875 -1.539062 0.46875 -1.9375 C 0.46875 -2.5625 0.703125 -3.050781 1.171875 -3.40625 C 1.640625 -3.769531 2.363281 -3.953125 3.34375 -3.953125 L 4.90625 -3.953125 C 4.90625 -4.378906 4.773438 -4.707031 4.515625 -4.9375 C 4.253906 -5.164062 3.863281 -5.28125 3.34375 -5.28125 C 2.988281 -5.28125 2.640625 -5.222656 2.296875 -5.109375 C 1.953125 -4.992188 1.65625 -4.84375 1.40625 -4.65625 L 0.71875 -6.015625 C 1.082031 -6.273438 1.519531 -6.472656 2.03125 -6.609375 C 2.539062 -6.753906 3.066406 -6.828125 3.609375 -6.828125 Z M 3.46875 -1.21875 C 3.800781 -1.21875 4.09375 -1.289062 4.34375 -1.4375 C 4.601562 -1.59375 4.789062 -1.820312 4.90625 -2.125 L 4.90625 -2.8125 L 3.5625 -2.8125 C 2.757812 -2.8125 2.359375 -2.550781 2.359375 -2.03125 C 2.359375 -1.78125 2.457031 -1.582031 2.65625 -1.4375 C 2.851562 -1.289062 3.125 -1.21875 3.46875 -1.21875 Z M 3.46875 -1.21875 "/></g></g></g><g fill="#c084fc" fill-opacity="1"><g transform="translate(94.665287, 62.288465)"><g><path d="M 0.90625 -9.28125 L 2.84375 -9.28125 L 2.84375 0 L 0.90625 0 Z M 0.90625 -9.28125 "/></g></g></g><g fill="#9f46f8" fill-opacity="1"><g transform="translate(98.428271, 62.288465)"><g><path d="M 9 0 L 8.984375 -5.25 L 6.40625 -0.921875 L 5.5 -0.921875 L 2.9375 -5.140625 L 2.9375 0 L 1.03125 0 L 1.03125 -8.75 L 2.71875 -8.75 L 5.984375 -3.3125 L 9.21875 -8.75 L 10.875 -8.75 L 10.90625 0 Z M 9 0 "/></g></g></g><g fill="#9f46f8" fill-opacity="1"><g transform="translate(110.361991, 62.288465)"><g><path d="M 3.609375 -6.828125 C 4.648438 -6.828125 5.445312 -6.578125 6 -6.078125 C 6.5625 -5.585938 6.84375 -4.84375 6.84375 -3.84375 L 6.84375 0 L 5.03125 0 L 5.03125 -0.84375 C 4.65625 -0.21875 3.96875 0.09375 2.96875 0.09375 C 2.457031 0.09375 2.007812 0.0078125 1.625 -0.15625 C 1.25 -0.332031 0.960938 -0.570312 0.765625 -0.875 C 0.566406 -1.1875 0.46875 -1.539062 0.46875 -1.9375 C 0.46875 -2.5625 0.703125 -3.050781 1.171875 -3.40625 C 1.640625 -3.769531 2.363281 -3.953125 3.34375 -3.953125 L 4.90625 -3.953125 C 4.90625 -4.378906 4.773438 -4.707031 4.515625 -4.9375 C 4.253906 -5.164062 3.863281 -5.28125 3.34375 -5.28125 C 2.988281 -5.28125 2.640625 -5.222656 2.296875 -5.109375 C 1.953125 -4.992188 1.65625 -4.84375 1.40625 -4.65625 L 0.71875 -6.015625 C 1.082031 -6.273438 1.519531 -6.472656 2.03125 -6.609375 C 2.539062 -6.753906 3.066406 -6.828125 3.609375 -6.828125 Z M 3.46875 -1.21875 C 3.800781 -1.21875 4.09375 -1.289062 4.34375 -1.4375 C 4.601562 -1.59375 4.789062 -1.820312 4.90625 -2.125 L 4.90625 -2.8125 L 3.5625 -2.8125 C 2.757812 -2.8125 2.359375 -2.550781 2.359375 -2.03125 C 2.359375 -1.78125 2.457031 -1.582031 2.65625 -1.4375 C 2.851562 -1.289062 3.125 -1.21875 3.46875 -1.21875 Z M 3.46875 -1.21875 "/></g></g></g><g fill="#9f46f8" fill-opacity="1"><g transform="translate(118.072049, 62.288465)"><g><path d="M 4.984375 -6.828125 C 5.816406 -6.828125 6.488281 -6.578125 7 -6.078125 C 7.519531 -5.578125 7.78125 -4.832031 7.78125 -3.84375 L 7.78125 0 L 5.828125 0 L 5.828125 -3.546875 C 5.828125 -4.078125 5.707031 -4.472656 5.46875 -4.734375 C 5.238281 -5.003906 4.90625 -5.140625 4.46875 -5.140625 C 3.96875 -5.140625 3.570312 -4.984375 3.28125 -4.671875 C 2.988281 -4.367188 2.84375 -3.921875 2.84375 -3.328125 L 2.84375 0 L 0.90625 0 L 0.90625 -6.71875 L 2.765625 -6.71875 L 2.765625 -5.9375 C 3.023438 -6.21875 3.34375 -6.4375 3.71875 -6.59375 C 4.101562 -6.75 4.523438 -6.828125 4.984375 -6.828125 Z M 4.984375 -6.828125 "/></g></g></g><g fill="#9f46f8" fill-opacity="1"><g transform="translate(126.706811, 62.288465)"><g><path d="M 3.609375 -6.828125 C 4.648438 -6.828125 5.445312 -6.578125 6 -6.078125 C 6.5625 -5.585938 6.84375 -4.84375 6.84375 -3.84375 L 6.84375 0 L 5.03125 0 L 5.03125 -0.84375 C 4.65625 -0.21875 3.96875 0.09375 2.96875 0.09375 C 2.457031 0.09375 2.007812 0.0078125 1.625 -0.15625 C 1.25 -0.332031 0.960938 -0.570312 0.765625 -0.875 C 0.566406 -1.1875 0.46875 -1.539062 0.46875 -1.9375 C 0.46875 -2.5625 0.703125 -3.050781 1.171875 -3.40625 C 1.640625 -3.769531 2.363281 -3.953125 3.34375 -3.953125 L 4.90625 -3.953125 C 4.90625 -4.378906 4.773438 -4.707031 4.515625 -4.9375 C 4.253906 -5.164062 3.863281 -5.28125 3.34375 -5.28125 C 2.988281 -5.28125 2.640625 -5.222656 2.296875 -5.109375 C 1.953125 -4.992188 1.65625 -4.84375 1.40625 -4.65625 L 0.71875 -6.015625 C 1.082031 -6.273438 1.519531 -6.472656 2.03125 -6.609375 C 2.539062 -6.753906 3.066406 -6.828125 3.609375 -6.828125 Z M 3.46875 -1.21875 C 3.800781 -1.21875 4.09375 -1.289062 4.34375 -1.4375 C 4.601562 -1.59375 4.789062 -1.820312 4.90625 -2.125 L 4.90625 -2.8125 L 3.5625 -2.8125 C 2.757812 -2.8125 2.359375 -2.550781 2.359375 -2.03125 C 2.359375 -1.78125 2.457031 -1.582031 2.65625 -1.4375 C 2.851562 -1.289062 3.125 -1.21875 3.46875 -1.21875 Z M 3.46875 -1.21875 "/></g></g></g><g fill="#9f46f8" fill-opacity="1"><g transform="translate(134.416869, 62.288465)"><g><path d="M 7.84375 -6.71875 L 7.84375 -1.125 C 7.84375 0.101562 7.519531 1.019531 6.875 1.625 C 6.226562 2.226562 5.289062 2.53125 4.0625 2.53125 C 3.414062 2.53125 2.800781 2.445312 2.21875 2.28125 C 1.632812 2.125 1.148438 1.894531 0.765625 1.59375 L 1.53125 0.203125 C 1.820312 0.429688 2.179688 0.613281 2.609375 0.75 C 3.046875 0.894531 3.476562 0.96875 3.90625 0.96875 C 4.582031 0.96875 5.082031 0.8125 5.40625 0.5 C 5.726562 0.195312 5.890625 -0.257812 5.890625 -0.875 L 5.890625 -1.15625 C 5.378906 -0.601562 4.671875 -0.328125 3.765625 -0.328125 C 3.148438 -0.328125 2.582031 -0.460938 2.0625 -0.734375 C 1.550781 -1.003906 1.144531 -1.382812 0.84375 -1.875 C 0.550781 -2.363281 0.40625 -2.929688 0.40625 -3.578125 C 0.40625 -4.210938 0.550781 -4.773438 0.84375 -5.265625 C 1.144531 -5.765625 1.550781 -6.148438 2.0625 -6.421875 C 2.582031 -6.691406 3.148438 -6.828125 3.765625 -6.828125 C 4.734375 -6.828125 5.472656 -6.503906 5.984375 -5.859375 L 5.984375 -6.71875 Z M 4.15625 -1.921875 C 4.664062 -1.921875 5.082031 -2.070312 5.40625 -2.375 C 5.738281 -2.6875 5.90625 -3.085938 5.90625 -3.578125 C 5.90625 -4.066406 5.738281 -4.460938 5.40625 -4.765625 C 5.082031 -5.066406 4.664062 -5.21875 4.15625 -5.21875 C 3.632812 -5.21875 3.207031 -5.066406 2.875 -4.765625 C 2.539062 -4.460938 2.375 -4.066406 2.375 -3.578125 C 2.375 -3.085938 2.539062 -2.6875 2.875 -2.375 C 3.207031 -2.070312 3.632812 -1.921875 4.15625 -1.921875 Z M 4.15625 -1.921875 "/></g></g></g><g fill="#9f46f8" fill-opacity="1"><g transform="translate(143.164095, 62.288465)"><g><path d="M 7.484375 -3.34375 C 7.484375 -3.3125 7.472656 -3.132812 7.453125 -2.8125 L 2.359375 -2.8125 C 2.453125 -2.394531 2.671875 -2.066406 3.015625 -1.828125 C 3.359375 -1.585938 3.78125 -1.46875 4.28125 -1.46875 C 4.632812 -1.46875 4.945312 -1.519531 5.21875 -1.625 C 5.488281 -1.726562 5.738281 -1.890625 5.96875 -2.109375 L 7.015625 -0.984375 C 6.378906 -0.265625 5.453125 0.09375 4.234375 0.09375 C 3.472656 0.09375 2.800781 -0.0507812 2.21875 -0.34375 C 1.632812 -0.632812 1.1875 -1.039062 0.875 -1.5625 C 0.5625 -2.09375 0.40625 -2.691406 0.40625 -3.359375 C 0.40625 -4.015625 0.5625 -4.609375 0.875 -5.140625 C 1.1875 -5.671875 1.613281 -6.082031 2.15625 -6.375 C 2.695312 -6.675781 3.304688 -6.828125 3.984375 -6.828125 C 4.640625 -6.828125 5.234375 -6.679688 5.765625 -6.390625 C 6.304688 -6.109375 6.726562 -5.703125 7.03125 -5.171875 C 7.332031 -4.648438 7.484375 -4.039062 7.484375 -3.34375 Z M 4 -5.34375 C 3.5625 -5.34375 3.191406 -5.21875 2.890625 -4.96875 C 2.585938 -4.71875 2.40625 -4.378906 2.34375 -3.953125 L 5.65625 -3.953125 C 5.582031 -4.378906 5.394531 -4.71875 5.09375 -4.96875 C 4.800781 -5.21875 4.4375 -5.34375 4 -5.34375 Z M 4 -5.34375 "/></g></g></g><g fill="#9f46f8" fill-opacity="1"><g transform="translate(151.049095, 62.288465)"><g><path d="M 2.765625 -5.84375 C 2.992188 -6.164062 3.304688 -6.410156 3.703125 -6.578125 C 4.097656 -6.742188 4.554688 -6.828125 5.078125 -6.828125 L 5.078125 -5.03125 C 4.859375 -5.039062 4.710938 -5.046875 4.640625 -5.046875 C 4.078125 -5.046875 3.632812 -4.890625 3.3125 -4.578125 C 3 -4.265625 2.84375 -3.796875 2.84375 -3.171875 L 2.84375 0 L 0.90625 0 L 0.90625 -6.71875 L 2.765625 -6.71875 Z M 2.765625 -5.84375 "/></g></g></g></svg>